PathFileType	4	(X/Y/Z)	markers.trc
DataRate	CameraRate	NumFrames	NumMarkers	Units	OrigDataRate	OrigDataStartFrame	OrigNumFrames
59.94	59.94	35	12	m	59.94	444	507
Frame#	Time	LEFT_SHOULDER			RIGHT_SHOULDER			LEFT_HIP			RIGHT_HIP			LEFT_KNEE			RIGHT_KNEE			LEFT_ANKLE			RIGHT_ANKLE			LEFT_HEEL			RIGHT_HEEL			LEFT_FOOT_INDEX			RIGHT_FOOT_INDEX		
		X1	Y1	Z1	X2	Y2	Z2	X3	Y3	Z3	X4	Y4	Z4	X5	Y5	Z5	X6	Y6	Z6	X7	Y7	Z7	X8	Y8	Z8	X9	Y9	Z9	X10	Y10	Z10	X11	Y11	Z11	X12	Y12	Z12

444	7.390717	2.212640	1.973991	0.000000	1.968023	1.977078	0.000000	2.183354	2.628521	0.000000	2.001424	2.621872	0.000000	2.184465	3.024800	0.000000	1.916423	3.080076	0.000000	2.469680	3.345592	0.000000	1.916926	3.625187	0.000000	2.552011	3.373435	0.000000	1.955662	3.714414	0.000000	2.394122	3.491631	0.000000	1.750919	3.690087	0.000000
445	7.407400	2.198324	1.973603	0.000000	1.947585	1.974535	0.000000	2.163506	2.627868	0.000000	1.980905	2.620951	0.000000	2.148192	3.024923	0.000000	1.910139	3.081485	0.000000	2.440350	3.332674	0.000000	1.916744	3.631455	0.000000	2.525202	3.359008	0.000000	1.956819	3.715780	0.000000	2.377051	3.494589	0.000000	1.751107	3.704383	0.000000
446	7.424083	2.185013	1.973422	0.000000	1.927212	1.971863	0.000000	2.144147	2.626817	0.000000	1.960853	2.619740	0.000000	2.112169	3.024843	0.000000	1.904492	3.082261	0.000000	2.408635	3.321784	0.000000	1.916923	3.637075	0.000000	2.495912	3.348285	0.000000	1.958100	3.716302	0.000000	2.356594	3.496799	0.000000	1.751656	3.718716	0.000000
447	7.440767	2.172469	1.973513	0.000000	1.906992	1.969162	0.000000	2.125247	2.625386	0.000000	1.941523	2.618245	0.000000	2.077065	3.024408	0.000000	1.898817	3.082336	0.000000	2.374779	3.313701	0.000000	1.917436	3.641562	0.000000	2.464262	3.341609	0.000000	1.959494	3.716219	0.000000	2.331883	3.498264	0.000000	1.752227	3.731402	0.000000
448	7.457450	2.160373	1.973846	0.000000	1.886897	1.966559	0.000000	2.106960	2.623615	0.000000	1.923298	2.616497	0.000000	2.043648	3.023456	0.000000	1.892775	3.081665	0.000000	2.338703	3.308943	0.000000	1.918245	3.644754	0.000000	2.429840	3.339053	0.000000	1.960885	3.715852	0.000000	2.302163	3.499203	0.000000	1.752588	3.741272	0.000000
449	7.474133	2.148437	1.974321	0.000000	1.866876	1.964205	0.000000	2.089510	2.621560	0.000000	1.906541	2.614565	0.000000	2.012602	3.021844	0.000000	1.886379	3.080264	0.000000	2.300025	3.307900	0.000000	1.919265	3.646811	0.000000	2.391781	3.340739	0.000000	1.962101	3.715539	0.000000	2.266835	3.499973	0.000000	1.752680	3.748004	0.000000
450	7.490817	2.136421	1.974822	0.000000	1.846980	1.962200	0.000000	2.073025	2.619258	0.000000	1.891366	2.612528	0.000000	1.984212	3.019515	0.000000	1.879854	3.078253	0.000000	2.258177	3.310977	0.000000	1.920354	3.648081	0.000000	2.348963	3.347024	0.000000	1.963012	3.715569	0.000000	2.225460	3.500992	0.000000	1.752573	3.751988	0.000000
451	7.507500	2.124140	1.975253	0.000000	1.827353	1.960551	0.000000	2.057556	2.616729	0.000000	1.877577	2.610478	0.000000	1.958436	3.016573	0.000000	1.873448	3.075886	0.000000	2.212753	3.318612	0.000000	1.921345	3.648918	0.000000	2.300509	3.358438	0.000000	1.963574	3.716105	0.000000	2.177928	3.502666	0.000000	1.752375	3.754033	0.000000
452	7.524183	2.111495	1.975558	0.000000	1.808154	1.959201	0.000000	2.043126	2.614012	0.000000	1.864857	2.608508	0.000000	1.935194	3.013262	0.000000	1.867333	3.073509	0.000000	2.163994	3.331105	0.000000	1.922090	3.649544	0.000000	2.246633	3.375352	0.000000	1.963815	3.717101	0.000000	2.124862	3.505348	0.000000	1.752190	3.755054	0.000000
453	7.540867	2.098477	1.975722	0.000000	1.789504	1.958087	0.000000	2.029637	2.611151	0.000000	1.852922	2.606677	0.000000	1.914382	3.009869	0.000000	1.861593	3.071428	0.000000	2.113098	3.348290	0.000000	1.922484	3.649999	0.000000	2.189054	3.397508	0.000000	1.963799	3.718285	0.000000	2.067996	3.509266	0.000000	1.752100	3.755782	0.000000
454	7.557550	2.085075	1.975772	0.000000	1.771492	1.957173	0.000000	2.016797	2.608200	0.000000	1.841519	2.604987	0.000000	1.895699	3.006659	0.000000	1.856219	3.069815	0.000000	2.062005	3.369177	0.000000	1.922463	3.650181	0.000000	2.130394	3.423698	0.000000	1.963595	3.719252	0.000000	2.009830	3.514383	0.000000	1.752174	3.756545	0.000000
455	7.574233	2.071176	1.975755	0.000000	1.754181	1.956450	0.000000	2.004198	2.605275	0.000000	1.830403	2.603438	0.000000	1.878580	3.003803	0.000000	1.851061	3.068716	0.000000	2.012666	3.391750	0.000000	1.921994	3.649893	0.000000	2.073144	3.451662	0.000000	1.963257	3.719595	0.000000	1.952438	3.520180	0.000000	1.752471	3.757245	0.000000
456	7.590917	2.056576	1.975723	0.000000	1.737611	1.955902	0.000000	1.991399	2.602587	0.000000	1.819375	2.602095	0.000000	1.862253	3.001324	0.000000	1.845808	3.068110	0.000000	1.966393	3.413207	0.000000	1.921078	3.648869	0.000000	2.019239	3.478291	0.000000	1.962824	3.718981	0.000000	1.896594	3.525538	0.000000	1.753031	3.757506	0.000000
457	7.607600	2.041120	1.975715	0.000000	1.721793	1.955496	0.000000	1.977990	2.600370	0.000000	1.808277	2.601104	0.000000	1.845892	2.999136	0.000000	1.840052	3.067944	0.000000	1.923582	3.430778	0.000000	1.919728	3.646833	0.000000	1.969912	3.500418	0.000000	1.962315	3.717179	0.000000	1.841954	3.528936	0.000000	1.753850	3.756888	0.000000
458	7.624283	2.024833	1.975748	0.000000	1.706664	1.955177	0.000000	1.963689	2.598781	0.000000	1.796972	2.600636	0.000000	1.828803	2.997189	0.000000	1.833469	3.068167	0.000000	1.883567	3.442719	0.000000	1.917962	3.643620	0.000000	1.925157	3.515974	0.000000	1.961748	3.714106	0.000000	1.787832	3.528905	0.000000	1.754866	3.755158	0.000000
459	7.640967	2.007922	1.975822	0.000000	1.692055	1.954899	0.000000	1.948446	2.597844	0.000000	1.785335	2.600814	0.000000	1.810576	2.995589	0.000000	1.826088	3.068745	0.000000	1.844748	3.448799	0.000000	1.915836	3.639385	0.000000	1.883397	3.524643	0.000000	1.961149	3.709957	0.000000	1.733806	3.524484	0.000000	1.755994	3.752577	0.000000
460	7.657650	1.990677	1.975940	0.000000	1.677696	1.954635	0.000000	1.932481	2.597483	0.000000	1.773236	2.601674	0.000000	1.791138	2.994623	0.000000	1.818388	3.069672	0.000000	1.805242	3.450049	0.000000	1.913516	3.634692	0.000000	1.842058	3.527583	0.000000	1.960570	3.705273	0.000000	1.679751	3.515464	0.000000	1.757198	3.749918	0.000000
461	7.674333	1.973424	1.976134	0.000000	1.663282	1.954392	0.000000	1.916218	2.597572	0.000000	1.760511	2.603145	0.000000	1.770781	2.994640	0.000000	1.811023	3.070958	0.000000	1.763659	3.448134	0.000000	1.911258	3.630220	0.000000	1.798588	3.526662	0.000000	1.960070	3.700696	0.000000	1.625672	3.502393	0.000000	1.758516	3.747938	0.000000
462	7.691017	1.956475	1.976485	0.000000	1.648592	1.954206	0.000000	1.900127	2.597977	0.000000	1.746993	2.605045	0.000000	1.750167	2.995894	0.000000	1.804369	3.072579	0.000000	1.719576	3.444718	0.000000	1.909277	3.626240	0.000000	1.751382	3.523763	0.000000	1.959671	3.696508	0.000000	1.571907	3.486292	0.000000	1.760031	3.746666	0.000000
463	7.707700	1.940018	1.977132	0.000000	1.633576	1.954128	0.000000	1.884501	2.598562	0.000000	1.732665	2.607096	0.000000	1.729966	2.998421	0.000000	1.798363	3.074394	0.000000	1.673649	3.441061	0.000000	1.907641	3.622413	0.000000	1.700437	3.520372	0.000000	1.959321	3.692451	0.000000	1.519341	3.468290	0.000000	1.761805	3.745142	0.000000
464	7.724383	1.924061	1.978252	0.000000	1.618363	1.954211	0.000000	1.869272	2.599205	0.000000	1.717728	2.609010	0.000000	1.710295	3.001970	0.000000	1.792673	3.076142	0.000000	1.627354	3.437889	0.000000	1.906261	3.618053	0.000000	1.647463	3.517409	0.000000	1.958883	3.687952	0.000000	1.469168	3.449487	0.000000	1.763769	3.741890	0.000000
465	7.741067	1.908485	1.980015	0.000000	1.603150	1.954512	0.000000	1.854044	2.599825	0.000000	1.702480	2.610603	0.000000	1.690674	3.006045	0.000000	1.786938	3.077547	0.000000	1.582509	3.435473	0.000000	1.904964	3.612569	0.000000	1.595315	3.515241	0.000000	1.958187	3.682479	0.000000	1.422488	3.431070	0.000000	1.765636	3.735796	0.000000
466	7.757750	1.893057	1.982520	0.000000	1.588051	1.955091	0.000000	1.838380	2.600398	0.000000	1.687200	2.611846	0.000000	1.670610	3.010087	0.000000	1.780932	3.078444	0.000000	1.540866	3.433781	0.000000	1.903559	3.605826	0.000000	1.547111	3.513815	0.000000	1.957089	3.675857	0.000000	1.380116	3.414377	0.000000	1.766949	3.726710	0.000000
467	7.774433	1.877434	1.985729	0.000000	1.573077	1.956003	0.000000	1.822062	2.600956	0.000000	1.672145	2.612835	0.000000	1.650131	3.013683	0.000000	1.774632	3.078811	0.000000	1.503833	3.432640	0.000000	1.901912	3.598228	0.000000	1.505409	3.512869	0.000000	1.955569	3.668387	0.000000	1.342528	3.400755	0.000000	1.767246	3.715373	0.000000
468	7.791117	1.861227	1.989453	0.000000	1.558222	1.957288	0.000000	1.805068	2.601573	0.000000	1.657493	2.613727	0.000000	1.629825	3.016679	0.000000	1.768117	3.078712	0.000000	1.472239	3.431854	0.000000	1.899969	3.590417	0.000000	1.471668	3.512114	0.000000	1.953779	3.660663	0.000000	1.309802	3.391296	0.000000	1.766180	3.702897	0.000000
469	7.807800	1.844107	1.993408	0.000000	1.543481	1.958970	0.000000	1.787361	2.602334	0.000000	1.643177	2.614655	0.000000	1.610394	3.019152	0.000000	1.761330	3.078228	0.000000	1.446252	3.431267	0.000000	1.897711	3.582857	0.000000	1.446109	3.511357	0.000000	1.951980	3.653205	0.000000	1.281653	3.386654	0.000000	1.763570	3.690264	0.000000
470	7.824483	1.825848	1.997341	0.000000	1.528813	1.961063	0.000000	1.768770	2.603314	0.000000	1.628807	2.615682	0.000000	1.592164	3.021283	0.000000	1.753909	3.077396	0.000000	1.425482	3.430771	0.000000	1.895076	3.575665	0.000000	1.427936	3.510530	0.000000	1.950381	3.646212	0.000000	1.257652	3.387071	0.000000	1.759485	3.678153	0.000000
471	7.841167	1.806313	2.001102	0.000000	1.514133	1.963579	0.000000	1.749022	2.604568	0.000000	1.613816	2.616790	0.000000	1.574935	3.023221	0.000000	1.745303	3.076184	0.000000	1.409174	3.430278	0.000000	1.891974	3.568744	0.000000	1.415723	3.509647	0.000000	1.949061	3.639621	0.000000	1.237446	3.392517	0.000000	1.754326	3.667159	0.000000
472	7.857850	1.785440	2.004617	0.000000	1.499365	1.966498	0.000000	1.727893	2.606128	0.000000	1.597780	2.617908	0.000000	1.558140	3.025023	0.000000	1.735061	3.074522	0.000000	1.396439	3.429704	0.000000	1.888338	3.561990	0.000000	1.407869	3.508740	0.000000	1.947988	3.633280	0.000000	1.220806	3.402777	0.000000	1.748738	3.657966	0.000000
473	7.874533	1.763196	2.007787	0.000000	1.484506	1.969723	0.000000	1.705437	2.607982	0.000000	1.580746	2.618927	0.000000	1.541103	3.026619	0.000000	1.723016	3.072356	0.000000	1.386525	3.428987	0.000000	1.884105	3.555300	0.000000	1.403029	3.507810	0.000000	1.947031	3.626922	0.000000	1.207531	3.417368	0.000000	1.743310	3.651100	0.000000
474	7.891217	1.739570	2.010404	0.000000	1.469629	1.973066	0.000000	1.682115	2.610028	0.000000	1.563300	2.619694	0.000000	1.523367	3.027814	0.000000	1.709223	3.069662	0.000000	1.378950	3.428090	0.000000	1.879153	3.548415	0.000000	1.400333	3.506820	0.000000	1.945938	3.619990	0.000000	1.197391	3.435266	0.000000	1.738304	3.646617	0.000000
475	7.907900	1.714677	2.012143	0.000000	1.454790	1.976279	0.000000	1.658720	2.612044	0.000000	1.546319	2.620042	0.000000	1.505007	3.028355	0.000000	1.693799	3.066427	0.000000	1.373379	3.427009	0.000000	1.873301	3.540844	0.000000	1.399258	3.505719	0.000000	1.944331	3.611617	0.000000	1.190129	3.454776	0.000000	1.733644	3.644109	0.000000
476	7.924583	1.688890	2.012609	0.000000	1.439951	1.979105	0.000000	1.636143	2.613711	0.000000	1.530563	2.619836	0.000000	1.486744	3.028057	0.000000	1.676852	3.062626	0.000000	1.369422	3.425789	0.000000	1.866389	3.531967	0.000000	1.399354	3.504494	0.000000	1.941765	3.600832	0.000000	1.185331	3.473843	0.000000	1.729104	3.642924	0.000000
477	7.941267	1.662841	2.011389	0.000000	1.424980	1.981342	0.000000	1.615159	2.614709	0.000000	1.516374	2.619004	0.000000	1.469747	3.026900	0.000000	1.658533	3.058251	0.000000	1.366621	3.424548	0.000000	1.858366	3.521243	0.000000	1.400109	3.503203	0.000000	1.937833	3.586922	0.000000	1.182335	3.490664	0.000000	1.724518	3.642374	0.000000
478	7.957950	1.637296	2.008111	0.000000	1.409755	1.982897	0.000000	1.596298	2.614808	0.000000	1.503662	2.617563	0.000000	1.455173	3.025050	0.000000	1.639130	3.053390	0.000000	1.364571	3.423441	0.000000	1.849325	3.508427	0.000000	1.401029	3.501969	0.000000	1.932272	3.569750	0.000000	1.180347	3.504147	0.000000	1.719848	3.641866	0.000000
